<?xml version="1.0" encoding="utf-8"?>
<!-- Generator: Adobe Illustrator 25.2.1, SVG Export Plug-In . SVG Version: 6.00 Build 0)  -->
<svg version="1.1" id="Calque_1" xmlns="http://www.w3.org/2000/svg" xmlns:xlink="http://www.w3.org/1999/xlink" x="0px" y="0px"
	 viewBox="0 0 62 56" style="enable-background:new 0 0 62 56;" xml:space="preserve">
<path d="M31.7,6.1C35,2.7,39.1,1,43.9,1S52.7,2.7,56,6.1s4.9,7.5,4.9,12.5s-1.6,9-4.9,12.4L33.6,54c-0.7,0.7-1.5,1.1-2.5,1.1
	s-1.8-0.4-2.5-1.1L6,30.9c-3.3-3.4-4.9-7.5-4.9-12.5S2.7,9.4,6,6.1S13.3,1,18.2,1S27,2.7,30.3,6.1c0.3,0.3,0.6,0.6,0.8,0.8
	C31.3,6.5,31.6,6.2,31.7,6.1z"/>
</svg>
